<svg width="60" height="60" viewBox="0 0 60 60" fill="none" xmlns="http://www.w3.org/2000/svg">
<g clip-path="url(#clip0_1003_113)">
<path d="M16.55 26.975C20.15 34.05 25.95 39.825 33.025 43.45L38.525 37.95C39.2 37.275 40.2 37.05 41.075 37.35C43.875 38.275 46.9 38.775 50 38.775C51.375 38.775 52.5 39.9 52.5 41.275V50C52.5 51.375 51.375 52.5 50 52.5C26.525 52.5 7.5 33.475 7.5 10C7.5 8.625 8.625 7.5 10 7.5H18.75C20.125 7.5 21.25 8.625 21.25 10C21.25 13.125 21.75 16.125 22.675 18.925C22.95 19.8 22.75 20.775 22.05 21.475L16.55 26.975Z" fill="#EB3223"/>
</g>
<defs>
<clipPath id="clip0_1003_113">
<rect width="60" height="60" fill="white"/>
</clipPath>
</defs>
</svg>
